<svg xmlns="http://www.w3.org/2000/svg" viewBox="0 0 512 512" width="512" height="512">
    <!-- Premium Matte Black Background -->
    <rect width="512" height="512" fill="#050506" rx="110" />
    
    <!-- Neon Cyan Glowing Brain Network -->
    <g transform="translate(56, 96) scale(2)">
        <defs>
            <filter id="icon-glow" x="-20%" y="-20%" width="140%" height="140%">
                <feGaussianBlur stdDeviation="3.5" result="blur" />
                <feComposite in="SourceGraphic" in2="blur" operator="over" />
            </filter>
        </defs>
        
        <g stroke="#00f0ff" stroke-width="1.2" opacity="0.8" fill="none">
            <line x1="80" y1="25" x2="60" y2="35" />
            <line x1="60" y1="35" x2="45" y2="55" />
            <line x1="45" y1="55" x2="40" y2="80" />
            <line x1="40" y1="80" x2="45" y2="105" />
            <line x1="45" y1="105" x2="60" y2="125" />
            <line x1="60" y1="125" x2="80" y2="135" />
            <line x1="92" y1="35" x2="92" y2="60" />
            <line x1="92" y1="60" x2="92" y2="80" />
            <line x1="92" y1="80" x2="92" y2="100" />
            <line x1="92" y1="100" x2="92" y2="125" />
            <line x1="80" y1="25" x2="92" y2="35" />
            <line x1="80" y1="135" x2="92" y2="125" />
            <line x1="80" y1="25" x2="80" y2="55" />
            <line x1="60" y1="35" x2="80" y2="55" />
            <line x1="92" y1="35" x2="80" y2="55" />
            <line x1="92" y1="60" x2="80" y2="55" />
            <line x1="60" y1="35" x2="70" y2="55" />
            <line x1="45" y1="55" x2="70" y2="55" />
            <line x1="80" y1="55" x2="70" y2="55" />
            <line x1="92" y1="60" x2="80" y2="80" />
            <line x1="45" y1="55" x2="65" y2="80" />
            <line x1="40" y1="80" x2="65" y2="80" />
            <line x1="70" y1="55" x2="65" y2="80" />
            <line x1="65" y1="80" x2="80" y2="80" />
            <line x1="40" y1="80" x2="70" y2="105" />
            <line x1="45" y1="105" x2="70" y2="105" />
            <line x1="65" y1="80" x2="70" y2="105" />
            <line x1="92" y1="80" x2="80" y2="80" />
            <line x1="45" y1="105" x2="60" y2="125" />
            <line x1="60" y1="125" x2="80" y2="105" />
            <line x1="80" y1="135" x2="80" y2="105" />
            <line x1="92" y1="125" x2="80" y2="105" />
            <line x1="92" y1="100" x2="80" y2="80" />
            <line x1="92" y1="100" x2="80" y2="105" />
            <line x1="70" y1="105" x2="80" y2="105" />
            <line x1="70" y1="55" x2="80" y2="80" />
            <line x1="70" y1="105" x2="80" y2="80" />
            <line x1="80" y1="55" x2="80" y2="80" />
            <line x1="80" y1="80" x2="80" y2="105" />
            <line x1="120" y1="25" x2="140" y2="35" />
            <line x1="140" y1="35" x2="155" y2="55" />
            <line x1="155" y1="55" x2="160" y2="80" />
            <line x1="160" y1="80" x2="155" y2="105" />
            <line x1="155" y1="105" x2="140" y2="125" />
            <line x1="140" y1="125" x2="120" y2="135" />
            <line x1="108" y1="35" x2="108" y2="60" />
            <line x1="108" y1="60" x2="108" y2="80" />
            <line x1="108" y1="80" x2="108" y2="100" />
            <line x1="108" y1="100" x2="108" y2="125" />
            <line x1="120" y1="25" x2="108" y2="35" />
            <line x1="120" y1="135" x2="108" y2="125" />
            <line x1="120" y1="25" x2="120" y2="55" />
            <line x1="140" y1="35" x2="120" y2="55" />
            <line x1="108" y1="35" x2="120" y2="55" />
            <line x1="108" y1="60" x2="120" y2="55" />
            <line x1="140" y1="35" x2="130" y2="55" />
            <line x1="155" y1="55" x2="130" y2="55" />
            <line x1="120" y1="55" x2="130" y2="55" />
            <line x1="108" y1="60" x2="120" y2="80" />
            <line x1="155" y1="55" x2="135" y2="80" />
            <line x1="160" y1="80" x2="135" y2="80" />
            <line x1="130" y1="55" x2="135" y2="80" />
            <line x1="135" y1="80" x2="120" y2="80" />
            <line x1="160" y1="80" x2="130" y2="105" />
            <line x1="155" y1="105" x2="130" y2="105" />
            <line x1="135" y1="80" x2="130" y2="105" />
            <line x1="108" y1="80" x2="120" y2="80" />
            <line x1="155" y1="105" x2="140" y2="125" />
            <line x1="140" y1="125" x2="120" y2="105" />
            <line x1="120" y1="135" x2="120" y2="105" />
            <line x1="108" y1="125" x2="120" y2="105" />
            <line x1="108" y1="100" x2="120" y2="80" />
            <line x1="108" y1="100" x2="120" y2="105" />
            <line x1="130" y1="105" x2="120" y2="105" />
            <line x1="130" y1="55" x2="120" y2="80" />
            <line x1="130" y1="105" x2="120" y2="80" />
            <line x1="120" y1="55" x2="120" y2="80" />
            <line x1="120" y1="80" x2="120" y2="105" />
            <line x1="92" y1="60" x2="108" y2="60" stroke-dasharray="1.5 1.5" opacity="0.6" />
            <line x1="92" y1="80" x2="108" y2="80" stroke-dasharray="1.5 1.5" opacity="0.6" />
            <line x1="92" y1="100" x2="108" y2="100" stroke-dasharray="1.5 1.5" opacity="0.6" />
        </g>
        
        <g fill="#00f0ff" filter="url(#icon-glow)">
            <circle cx="80" cy="25" r="2" />
            <circle cx="60" cy="35" r="2" />
            <circle cx="45" cy="55" r="2" />
            <circle cx="40" cy="80" r="2" />
            <circle cx="45" cy="105" r="2" />
            <circle cx="60" cy="125" r="2" />
            <circle cx="80" cy="135" r="2" />
            <circle cx="92" cy="35" r="2" />
            <circle cx="92" cy="60" r="2" />
            <circle cx="92" cy="80" r="2" />
            <circle cx="92" cy="100" r="2" />
            <circle cx="92" cy="125" r="2" />
            <circle cx="70" cy="55" r="2" />
            <circle cx="65" cy="80" r="2" />
            <circle cx="70" cy="105" r="2" />
            <circle cx="80" cy="55" r="2" />
            <circle cx="80" cy="80" r="2" />
            <circle cx="80" cy="105" r="2" />
            <circle cx="120" cy="25" r="2" />
            <circle cx="140" cy="35" r="2" />
            <circle cx="155" cy="55" r="2" />
            <circle cx="160" cy="80" r="2" />
            <circle cx="155" cy="105" r="2" />
            <circle cx="140" cy="125" r="2" />
            <circle cx="120" cy="135" r="2" />
            <circle cx="108" cy="35" r="2" />
            <circle cx="108" cy="60" r="2" />
            <circle cx="108" cy="80" r="2" />
            <circle cx="108" cy="100" r="2" />
            <circle cx="108" cy="125" r="2" />
            <circle cx="130" cy="55" r="2" />
            <circle cx="135" cy="80" r="2" />
            <circle cx="130" cy="105" r="2" />
            <circle cx="120" cy="55" r="2" />
            <circle cx="120" cy="80" r="2" />
            <circle cx="120" cy="105" r="2" />
        </g>
    </g>
</svg>
